# Blender v3.3.0 OBJ File: ''
# www.blender.org
mtllib masck pig.mtl
o Cube
v 0.258467 0.038133 0.183017
v 0.348357 0.281400 -0.178250
v 0.317386 -0.339841 0.211419
v 0.382903 -0.220947 -0.332330
v -0.000000 0.552982 -0.134459
v -0.000000 -0.433183 0.329107
v -0.000000 -0.415674 -0.564311
v -0.000000 0.195442 0.326714
v 0.359613 0.189019 0.060990
v 0.450623 -0.298949 -0.066243
v -0.000000 0.493580 0.084242
v -0.000000 -0.568380 -0.782648
v 0.388020 -0.018905 -0.281680
v -0.000000 -0.102967 0.294078
v 0.398155 -0.115672 -0.014537
v 0.140547 -0.330393 0.526398
v -0.000000 -0.386465 0.507021
v 0.140547 -0.217861 0.565151
v -0.000000 -0.165670 0.584528
v 0.215781 0.167531 -0.433677
v 0.237811 -0.121090 -0.446656
v -0.000000 0.440307 -0.396756
v -0.000000 -0.268158 -0.571414
v 0.264212 0.047096 -0.444250
v -0.000000 0.002289 -0.520716
v -0.000000 0.175496 -0.517524
v -0.000000 -0.168108 -0.535425
v 0.177079 -0.214013 0.372046
v 0.196071 -0.315367 0.353843
v -0.000000 -0.378939 0.435065
v -0.000000 -0.165206 0.442849
v 0.310181 0.111961 0.122004
v 0.384005 -0.320661 0.072588
v -0.000000 0.369055 0.182840
v -0.000000 -0.535495 0.274226
v 0.341534 -0.132282 0.087468
v 0.303872 0.311397 -0.305013
v -0.000000 0.490916 -0.316624
v 0.330317 -0.177576 -0.372951
v 0.329066 0.014251 -0.340715
v -0.000000 -0.316372 -0.561963
v 0.381487 -0.311423 -0.397540
v 0.191617 0.077020 0.222475
v 0.277048 0.461686 -0.137353
v 0.235619 -0.371316 0.241739
v 0.409557 -0.408073 -0.023459
v 0.261724 0.448721 0.001107
v 0.210446 -0.140615 0.223301
v 0.082548 -0.372865 0.512213
v 0.082548 -0.179066 0.579336
v 0.202076 -0.168760 -0.477760
v 0.181196 0.331242 -0.399139
v 0.138549 -0.172653 0.388597
v 0.160520 -0.335131 0.372911
v 0.332402 -0.426924 0.155544
v 0.227084 0.339914 0.070429
v 0.270989 -0.222156 -0.410166
v 0.228884 0.390870 -0.307331
v -0.000000 -0.779821 0.470397
v 0.401030 -0.364440 -0.571724
v 0.556833 -0.559248 0.034163
v 0.372254 -0.576491 0.283762
v 0.300273 -0.242012 0.200446
v 0.424235 -0.206680 -0.040390
v 0.386117 -0.117307 -0.310714
v 0.161777 -0.272954 0.545774
v -0.000000 -0.277389 0.570912
v 0.251844 -0.036588 -0.445453
v -0.000000 -0.078936 -0.522508
v 0.186575 -0.264522 0.362944
v 0.293227 -0.163805 0.181679
v 0.330648 -0.081014 -0.356833
v 0.115492 -0.279310 0.558315
v 0.332156 0.102111 -0.028995
v 0.488356 0.189553 -0.026427
v 0.257163 0.357282 0.027592
v 0.563912 0.552481 0.028143
v 0.294006 0.234890 -0.001352
v 0.560411 0.411169 -0.009529
v 0.547507 0.472683 -0.003186
v 0.275969 0.293031 0.013502
v 0.439987 0.181561 0.021765
v 0.246690 0.317894 0.065544
v 0.537623 0.561420 0.060810
v 0.339682 0.096038 0.036186
v 0.350996 0.262688 0.046300
v 0.469439 0.460985 0.052512
v 0.596947 0.487766 -0.017850
v 0.585785 0.598832 0.014956
v 0.540241 0.147311 -0.053594
v 0.623368 0.410716 -0.023187
v 0.487440 0.474062 0.071342
v 0.553314 0.612487 0.056443
v 0.463416 0.133952 0.022159
v 0.352129 0.238473 0.058799
v 0.512916 0.095362 -0.024508
v 0.241679 0.327100 0.041820
v 0.541984 0.629562 0.061250
v 0.348891 0.054980 -0.000831
v 0.465011 0.186634 -0.007640
v -0.000000 -0.637303 0.374182
v 0.326885 -0.487332 0.232753
v 0.451616 -0.469473 0.009973
v 0.366084 -0.329717 -0.498593
v -0.000000 -0.477661 -0.695118
v -0.258467 0.038133 0.183017
v -0.348357 0.281400 -0.178250
v -0.317386 -0.339841 0.211419
v -0.382903 -0.220947 -0.332330
v -0.359613 0.189019 0.060990
v -0.450623 -0.298949 -0.066243
v -0.388020 -0.018905 -0.281680
v -0.398155 -0.115672 -0.014537
v -0.140547 -0.330393 0.526398
v -0.140547 -0.217861 0.565151
v -0.215781 0.167531 -0.433677
v -0.237811 -0.121090 -0.446656
v -0.264212 0.047096 -0.444250
v -0.177079 -0.214013 0.372046
v -0.196071 -0.315367 0.353843
v -0.310181 0.111961 0.122004
v -0.384005 -0.320661 0.072588
v -0.341534 -0.132282 0.087468
v -0.303872 0.311397 -0.305013
v -0.330317 -0.177576 -0.372951
v -0.329066 0.014251 -0.340715
v -0.381487 -0.311423 -0.397540
v -0.191617 0.077020 0.222475
v -0.277049 0.461686 -0.137353
v -0.235619 -0.371316 0.241739
v -0.409557 -0.408073 -0.023459
v -0.261724 0.448721 0.001107
v -0.210446 -0.140615 0.223301
v -0.082548 -0.372865 0.512213
v -0.082548 -0.179066 0.579336
v -0.202076 -0.168760 -0.477760
v -0.181196 0.331242 -0.399139
v -0.138549 -0.172653 0.388597
v -0.160520 -0.335131 0.372911
v -0.332402 -0.426924 0.155544
v -0.227084 0.339914 0.070429
v -0.270989 -0.222156 -0.410166
v -0.228884 0.390870 -0.307331
v -0.401030 -0.364440 -0.571724
v -0.556833 -0.559248 0.034163
v -0.372254 -0.576491 0.283762
v -0.300273 -0.242012 0.200446
v -0.424235 -0.206680 -0.040390
v -0.386117 -0.117307 -0.310714
v -0.161777 -0.272954 0.545774
v -0.251844 -0.036588 -0.445453
v -0.186575 -0.264522 0.362944
v -0.293227 -0.163805 0.181679
v -0.330648 -0.081014 -0.356833
v -0.115492 -0.279310 0.558315
v -0.332156 0.102111 -0.028995
v -0.488356 0.189553 -0.026427
v -0.257163 0.357282 0.027592
v -0.563913 0.552481 0.028143
v -0.294006 0.234890 -0.001352
v -0.560411 0.411169 -0.009529
v -0.547507 0.472683 -0.003186
v -0.275969 0.293031 0.013502
v -0.439987 0.181561 0.021765
v -0.246690 0.317894 0.065544
v -0.537623 0.561420 0.060810
v -0.339682 0.096038 0.036186
v -0.350996 0.262688 0.046300
v -0.469439 0.460985 0.052512
v -0.596947 0.487766 -0.017850
v -0.585785 0.598832 0.014956
v -0.540241 0.147311 -0.053594
v -0.623368 0.410716 -0.023187
v -0.487440 0.474062 0.071342
v -0.553314 0.612487 0.056443
v -0.463416 0.133952 0.022159
v -0.352129 0.238473 0.058799
v -0.512916 0.095362 -0.024508
v -0.241679 0.327100 0.041820
v -0.541984 0.629562 0.061250
v -0.348891 0.054980 -0.000831
v -0.465011 0.186634 -0.007640
v -0.326885 -0.487332 0.232753
v -0.451616 -0.469473 0.009973
v -0.366084 -0.329717 -0.498593
vt 0.417673 0.389453
vt 0.296160 0.368152
vt 0.330421 0.337541
vt 0.378228 0.304187
vt 0.642007 0.370427
vt 0.609399 0.436491
vt 0.616828 0.295259
vt 0.710804 0.461877
vt 0.751615 0.529867
vt 0.708242 0.473687
vt 0.201358 0.475621
vt 0.117691 0.531480
vt 0.167637 0.413090
vt 0.204947 0.426917
vt 0.387560 0.106184
vt 0.446358 0.300279
vt 0.371987 0.251246
vt 0.339392 0.122668
vt 0.229706 0.181462
vt 0.274453 0.240581
vt 0.249175 0.251353
vt 0.213316 0.184600
vt 0.600260 0.362263
vt 0.600260 0.752602
vt 0.557564 0.730583
vt 0.525606 0.391722
vt 0.191763 0.619315
vt 0.118472 0.626855
vt 0.108072 0.579602
vt 0.194637 0.520970
vt 0.448282 0.644019
vt 0.383838 0.637885
vt 0.389009 0.478614
vt 0.442341 0.473651
vt 0.330589 0.631587
vt 0.336083 0.485207
vt 0.149610 0.294337
vt 0.249517 0.341835
vt 0.060670 0.388375
vt 0.312408 0.428239
vt 0.254792 0.148009
vt 0.224063 0.167775
vt 0.200104 0.128392
vt 0.257506 0.114718
vt 0.244923 0.170305
vt 0.298653 0.203377
vt 0.299714 0.227342
vt 0.191972 0.179789
vt 0.219731 0.250972
vt 0.155966 0.226088
vt 0.162913 0.166413
vt 0.171567 0.727662
vt 0.150873 0.685899
vt 0.188640 0.671207
vt 0.242353 0.734786
vt 0.379535 0.747975
vt 0.337871 0.735904
vt 0.364886 0.677364
vt 0.419288 0.685231
vt 0.316369 0.671242
vt 0.299701 0.727350
vt 0.398962 0.776782
vt 0.442442 0.730246
vt 0.438283 0.898569
vt 0.415222 0.894123
vt 0.370038 0.875455
vt 0.293269 0.855061
vt 0.213570 0.836088
vt 0.087080 0.771544
vt 0.330426 0.863491
vt 0.526394 0.220316
vt 0.475244 0.247369
vt 0.437189 0.058052
vt 0.496378 0.001096
vt 0.521974 0.674562
vt 0.481574 0.914321
vt 0.051550 0.738133
vt 0.006512 0.658333
vt 0.001096 0.554626
vt 0.027963 0.480231
vt 0.492922 0.422152
vt 0.289714 0.119431
vt 0.585256 0.998904
vt 0.537055 0.958958
vt 0.789863 0.085632
vt 0.612252 0.139131
vt 0.610357 0.105500
vt 0.795996 0.028676
vt 0.723297 0.243264
vt 0.617835 0.239190
vt 0.614497 0.169901
vt 0.793250 0.125680
vt 0.747944 0.538563
vt 0.605032 0.446573
vt 0.675846 0.297457
vt 0.618256 0.267448
vt 0.702241 0.267696
vt 0.785476 0.463913
vt 0.776022 0.520630
vt 0.762052 0.499691
vt 0.759011 0.458237
vt 0.795996 0.420997
vt 0.762134 0.425762
vt 0.709783 0.317435
vt 0.732102 0.287450
vt 0.675328 0.322651
vt 0.654581 0.376278
vt 0.743984 0.506573
vt 0.695046 0.320200
vt 0.774714 0.001096
vt 0.602452 0.088504
vt 0.417673 0.389453
vt 0.378228 0.304187
vt 0.330421 0.337541
vt 0.296160 0.368152
vt 0.642007 0.370427
vt 0.616828 0.295259
vt 0.609399 0.436491
vt 0.710804 0.461877
vt 0.708242 0.473687
vt 0.751615 0.529867
vt 0.201358 0.475621
vt 0.204947 0.426917
vt 0.167637 0.413090
vt 0.117691 0.531480
vt 0.371987 0.251246
vt 0.446358 0.300279
vt 0.229706 0.181462
vt 0.213316 0.184600
vt 0.249175 0.251353
vt 0.274453 0.240581
vt 0.600260 0.362263
vt 0.525606 0.391722
vt 0.557564 0.730583
vt 0.600260 0.752602
vt 0.191763 0.619315
vt 0.194637 0.520970
vt 0.108072 0.579602
vt 0.118472 0.626855
vt 0.448282 0.644019
vt 0.442341 0.473651
vt 0.389009 0.478614
vt 0.383838 0.637885
vt 0.330589 0.631587
vt 0.336083 0.485207
vt 0.249517 0.341835
vt 0.312408 0.428239
vt 0.254792 0.148009
vt 0.224063 0.167775
vt 0.244923 0.170305
vt 0.299714 0.227342
vt 0.298653 0.203377
vt 0.191972 0.179789
vt 0.219731 0.250972
vt 0.171567 0.727662
vt 0.242353 0.734786
vt 0.188640 0.671207
vt 0.150873 0.685899
vt 0.379535 0.747975
vt 0.419288 0.685231
vt 0.364886 0.677364
vt 0.337871 0.735904
vt 0.299701 0.727350
vt 0.316369 0.671242
vt 0.398962 0.776782
vt 0.442442 0.730246
vt 0.526394 0.220316
vt 0.475244 0.247369
vt 0.521974 0.674562
vt 0.492922 0.422152
vt 0.789863 0.085632
vt 0.795996 0.028676
vt 0.610357 0.105500
vt 0.612252 0.139131
vt 0.723297 0.243264
vt 0.793250 0.125680
vt 0.614497 0.169901
vt 0.617835 0.239190
vt 0.605032 0.446573
vt 0.747944 0.538563
vt 0.675846 0.297457
vt 0.702241 0.267696
vt 0.618256 0.267448
vt 0.785476 0.463913
vt 0.759011 0.458237
vt 0.762052 0.499691
vt 0.776022 0.520630
vt 0.795996 0.420997
vt 0.732102 0.287450
vt 0.709783 0.317435
vt 0.762134 0.425762
vt 0.654581 0.376278
vt 0.675328 0.322651
vt 0.743984 0.506573
vt 0.695046 0.320200
vt 0.774714 0.001096
vt 0.602452 0.088504
vn 0.8893 -0.0080 0.4573
vn 0.7771 0.1874 0.6009
vn 0.8371 0.1709 0.5197
vn 0.8062 -0.1025 0.5828
vn 0.2950 -0.0305 0.9550
vn -0.1801 0.1277 0.9753
vn 0.1852 -0.3870 0.9033
vn 0.8686 -0.4355 0.2363
vn 0.2795 0.1365 0.9504
vn 0.7437 -0.3173 0.5885
vn 0.7014 0.1889 0.6873
vn 0.4635 0.4212 0.7796
vn 0.4927 0.1940 0.8483
vn 0.6392 0.1550 0.7533
vn -0.0000 0.3150 0.9491
vn 0.7236 0.2231 0.6532
vn 0.5113 -0.5714 0.6419
vn -0.0000 -0.7276 0.6860
vn 0.7759 -0.1185 0.6197
vn 0.9133 0.0860 0.3981
vn 0.8011 0.4660 0.3756
vn 0.6697 0.2785 0.6884
vn 0.6390 0.7156 0.2821
vn 0.2521 0.8706 -0.4225
vn 0.2825 0.9228 -0.2619
vn 0.7182 0.6459 0.2587
vn 0.9395 0.3070 -0.1522
vn 0.6593 0.7477 -0.0796
vn 0.6023 0.6731 0.4291
vn 0.8472 0.2554 0.4660
vn 0.8752 0.1080 -0.4716
vn 0.8896 0.1503 -0.4313
vn 0.9686 0.1507 0.1980
vn 0.9974 -0.0180 0.0698
vn 0.9381 0.1609 -0.3066
vn 0.9592 0.1018 0.2637
vn -0.0000 0.5762 0.8173
vn 0.5240 0.4272 0.7368
vn 0.0000 0.3101 0.9507
vn 0.8459 0.0751 0.5281
vn 0.2673 -0.8584 0.4378
vn 0.1440 -0.3255 0.9345
vn -0.0000 -0.3169 0.9485
vn 0.0000 -0.9131 0.4078
vn 0.6143 -0.5633 0.5525
vn 0.4652 -0.8461 0.2603
vn 0.7864 -0.3878 0.4809
vn 0.3164 0.5879 0.7445
vn 0.4312 0.8590 0.2760
vn -0.0000 0.9878 0.1556
vn -0.0000 0.6671 0.7450
vn 0.4373 0.4711 -0.7661
vn 0.5624 0.6509 -0.5099
vn 0.7809 0.3578 -0.5120
vn 0.5189 0.2332 -0.8224
vn 0.5276 0.0357 -0.8488
vn 0.5496 0.0155 -0.8353
vn 0.7236 0.0789 -0.6857
vn 0.6352 0.1431 -0.7589
vn 0.8108 0.1400 -0.5684
vn 0.5984 0.0938 -0.7957
vn 0.4537 0.0492 -0.8898
vn 0.5290 0.0750 -0.8453
vn -0.0000 -0.0074 -1.0000
vn -0.0000 -0.0536 -0.9986
vn 0.0000 0.2358 -0.9718
vn 0.0000 0.0423 -0.9991
vn 0.0000 0.2296 -0.9733
vn 0.0000 0.6485 -0.7612
vn -0.0000 0.0285 -0.9996
vn 0.3394 0.6385 0.6908
vn 0.2927 0.7019 0.6494
vn 0.0000 0.6161 0.7877
vn 0.0000 0.5519 0.8339
vn 0.8149 0.3938 -0.4252
vn -0.0000 0.7608 -0.6489
vn 0.0000 0.8663 -0.4994
vn 0.0000 0.9960 -0.0896
vn -0.0000 0.8027 0.5964
vn -0.0000 0.5335 0.8458
vn 0.9701 0.1629 0.1801
vn 0.0000 -0.9941 0.1083
vn 0.0000 0.7849 -0.6196
vn -0.0000 0.8468 -0.5319
vn 0.9032 0.1033 -0.4165
vn -0.1701 0.1520 -0.9736
vn -0.4284 0.4878 -0.7606
vn 0.6676 0.7267 -0.1619
vn 0.9049 -0.0677 -0.4203
vn -0.0820 -0.1657 -0.9828
vn -0.1450 0.1342 -0.9803
vn 0.9711 0.1778 -0.1591
vn -0.5150 0.7936 0.3241
vn -0.5331 0.5537 0.6397
vn 0.5268 -0.1103 0.8428
vn 0.2371 -0.9689 -0.0711
vn 0.7137 -0.7004 0.0080
vn 0.5959 -0.2042 0.7767
vn 0.4259 -0.1645 0.8897
vn 0.3486 -0.1409 0.9266
vn 0.4589 -0.0528 0.8869
vn 0.5842 0.1490 0.7978
vn 0.9162 -0.2863 0.2804
vn 0.1651 0.0155 0.9862
vn 0.6002 0.0338 0.7992
vn -0.8893 -0.0080 0.4573
vn -0.8062 -0.1025 0.5828
vn -0.8371 0.1709 0.5197
vn -0.7771 0.1874 0.6009
vn -0.2950 -0.0305 0.9550
vn -0.1852 -0.3870 0.9033
vn 0.1801 0.1277 0.9753
vn -0.8686 -0.4355 0.2363
vn -0.7437 -0.3173 0.5885
vn -0.2795 0.1365 0.9504
vn -0.7014 0.1889 0.6873
vn -0.6392 0.1550 0.7533
vn -0.4927 0.1940 0.8483
vn -0.4635 0.4212 0.7796
vn -0.5113 -0.5714 0.6419
vn -0.7236 0.2231 0.6532
vn -0.7759 -0.1185 0.6197
vn -0.6697 0.2785 0.6884
vn -0.8011 0.4660 0.3756
vn -0.9133 0.0860 0.3981
vn -0.6390 0.7156 0.2821
vn -0.7182 0.6459 0.2587
vn -0.2825 0.9228 -0.2619
vn -0.2521 0.8706 -0.4225
vn -0.9395 0.3070 -0.1522
vn -0.8472 0.2554 0.4660
vn -0.6023 0.6731 0.4291
vn -0.6593 0.7477 -0.0796
vn -0.8752 0.1080 -0.4716
vn -0.9974 -0.0180 0.0698
vn -0.9686 0.1507 0.1980
vn -0.8896 0.1503 -0.4313
vn -0.9381 0.1609 -0.3066
vn -0.9592 0.1018 0.2637
vn -0.5240 0.4272 0.7368
vn -0.8459 0.0751 0.5281
vn -0.2673 -0.8584 0.4378
vn -0.1440 -0.3255 0.9345
vn -0.6143 -0.5633 0.5525
vn -0.7864 -0.3878 0.4809
vn -0.4652 -0.8461 0.2603
vn -0.3164 0.5879 0.7445
vn -0.4312 0.8590 0.2760
vn -0.4373 0.4711 -0.7661
vn -0.5189 0.2332 -0.8224
vn -0.7809 0.3578 -0.5120
vn -0.5624 0.6509 -0.5099
vn -0.5276 0.0357 -0.8488
vn -0.6352 0.1431 -0.7589
vn -0.7236 0.0789 -0.6857
vn -0.5496 0.0155 -0.8353
vn -0.5984 0.0938 -0.7957
vn -0.8108 0.1400 -0.5684
vn -0.4537 0.0492 -0.8898
vn -0.5290 0.0750 -0.8453
vn -0.3394 0.6385 0.6908
vn -0.2927 0.7019 0.6494
vn -0.8149 0.3938 -0.4252
vn -0.9701 0.1629 0.1801
vn -0.9032 0.1033 -0.4165
vn -0.6676 0.7267 -0.1619
vn 0.4284 0.4878 -0.7606
vn 0.1701 0.1520 -0.9736
vn -0.9049 -0.0677 -0.4203
vn -0.9711 0.1778 -0.1591
vn 0.1450 0.1342 -0.9803
vn 0.0820 -0.1657 -0.9828
vn 0.5331 0.5537 0.6397
vn 0.5150 0.7936 0.3241
vn -0.5268 -0.1103 0.8428
vn -0.7137 -0.7004 0.0080
vn -0.2371 -0.9689 -0.0711
vn -0.4259 -0.1645 0.8897
vn -0.5959 -0.2042 0.7767
vn -0.4589 -0.0528 0.8869
vn -0.3486 -0.1409 0.9266
vn -0.9162 -0.2863 0.2804
vn -0.5842 0.1490 0.7978
vn -0.1651 0.0155 0.9862
vn -0.6002 0.0338 0.7992
usemtl Material
s 1
f 33/1/1 71/2/2 63/3/3 3/4/4
f 95/5/5 83/6/6 85/7/7
f 87/8/8 93/9/9 92/10/10
f 32/11/11 56/12/12 43/13/13 1/14/14
f 35/15/15 55/16/16 45/17/17 6/18/18
f 66/19/19 70/20/20 28/21/21 18/22/22
f 61/23/23 60/24/24 104/25/25 103/26/26
f 2/27/27 44/28/28 47/29/29 9/30/30
f 4/31/31 65/32/32 64/33/33 10/34/34
f 13/35/35 2/27/27 9/30/30 15/36/36
f 14/37/37 48/38/38 43/13/13 8/39/39
f 36/40/40 32/11/11 1/14/14 71/2/2
f 49/41/41 73/42/42 67/43/43 17/44/44
f 16/45/45 49/41/41 54/46/46 29/47/47
f 50/48/48 53/49/49 31/50/50 19/51/51
f 52/52/52 58/53/53 37/54/54 20/55/55
f 21/56/56 68/57/57 72/58/58 39/59/59
f 20/55/55 37/54/54 40/60/60 24/61/61
f 51/62/62 57/63/63 41/64/64 23/65/65
f 51/62/62 23/65/65 27/66/66 21/56/56
f 20/55/55 24/61/61 25/67/67 26/68/68
f 52/52/52 20/55/55 26/68/68 22/69/69
f 25/67/67 24/61/61 68/57/57 69/70/70
f 53/49/49 48/38/38 14/37/37 31/50/50
f 29/47/47 54/46/46 45/17/17 3/4/4
f 28/21/21 70/20/20 63/3/3 71/2/2
f 15/36/36 9/30/30 32/11/11 36/40/40
f 62/71/71 102/72/72 101/73/73 59/74/74
f 9/30/30 47/29/29 56/12/12 32/11/11
f 33/1/1 10/34/34 64/33/33 71/2/2
f 57/63/63 42/75/75 7/76/76 41/64/64
f 40/60/60 37/54/54 2/27/27 13/35/35
f 39/59/59 72/58/58 65/32/32 4/31/31
f 58/53/53 44/28/28 2/27/27 37/54/54
f 38/77/77 5/78/78 44/28/28 58/53/53
f 39/59/59 4/31/31 42/75/75 57/63/63
f 56/12/12 47/29/29 11/79/79 34/80/80
f 46/81/81 10/34/34 33/1/1 55/16/16
f 54/46/46 30/82/82 6/18/18 45/17/17
f 28/21/21 71/2/2 48/38/38 53/49/49
f 21/56/56 39/59/59 57/63/63 51/62/62
f 22/69/69 38/77/77 58/53/53 52/52/52
f 18/22/22 28/21/21 53/49/49 50/48/48
f 49/41/41 17/44/44 30/82/82 54/46/46
f 16/45/45 66/19/19 73/42/42 49/41/41
f 48/38/38 71/2/2 1/14/14 43/13/13
f 47/29/29 44/28/28 5/78/78 11/79/79
f 42/75/75 4/31/31 10/34/34 46/81/81
f 55/16/16 33/1/1 3/4/4 45/17/17
f 43/13/13 56/12/12 34/80/80 8/39/39
f 60/24/24 12/83/83 105/84/84 104/25/25
f 62/71/71 61/23/23 103/26/26 102/72/72
f 73/42/42 66/19/19 18/22/22 50/48/48
f 72/58/58 40/60/60 13/35/35 65/32/32
f 71/2/2 64/33/33 15/36/36 36/40/40
f 29/47/47 3/4/4 63/3/3 70/20/20
f 69/70/70 68/57/57 21/56/56 27/66/66
f 68/57/57 24/61/61 40/60/60 72/58/58
f 67/43/43 73/42/42 50/48/48 19/51/51
f 65/32/32 13/35/35 15/36/36 64/33/33
f 16/45/45 29/47/47 70/20/20 66/19/19
f 88/85/85 81/86/86 76/87/87 89/88/88
f 90/89/89 74/90/90 78/91/91 91/92/92
f 91/92/92 78/91/91 81/86/86 88/85/85
f 93/9/9 98/93/93 97/94/94 83/6/6
f 92/10/10 93/9/9 83/6/6
f 85/7/7 94/95/95 95/5/5
f 95/5/5 92/10/10 83/6/6
f 94/95/95 85/7/7 99/96/96 96/97/97
f 88/98/85 89/99/88 77/100/98 80/101/99
f 91/102/92 79/103/100 75/104/101 90/105/89
f 88/98/85 80/101/99 79/103/100 91/102/92
f 95/5/5 94/95/95 82/106/102 86/107/103
f 87/8/8 84/108/104 93/9/9
f 92/10/10 95/5/5 86/107/103 87/8/8
f 94/95/95 96/97/97 100/109/105 82/106/102
f 77/100/98 89/99/88 98/93/93 93/9/9 84/108/104
f 96/97/97 90/105/89 75/104/101 100/109/105
f 96/97/97 99/96/96 74/90/90 90/89/89
f 98/110/93 89/88/88 76/87/87 97/111/94
f 84/108/104 87/8/8 86/107/103 82/106/102 100/109/105 75/104/101 79/103/100 80/101/99 77/100/98
f 103/26/26 46/81/81 55/16/16 102/72/72
f 104/25/25 105/84/84 7/76/76 42/75/75
f 102/72/72 55/16/16 35/15/15 101/73/73
f 103/26/26 104/25/25 42/75/75 46/81/81
f 122/112/106 108/113/107 147/114/108 153/115/109
f 177/116/110 167/117/111 165/118/112
f 169/119/113 174/120/114 175/121/115
f 121/122/116 106/123/117 128/124/118 141/125/119
f 35/15/15 6/18/18 130/126/120 140/127/121
f 150/128/122 115/129/123 119/130/124 152/131/125
f 145/132/126 184/133/127 185/134/128 144/135/129
f 107/136/130 110/137/131 132/138/132 129/139/133
f 109/140/134 111/141/135 148/142/136 149/143/137
f 112/144/138 113/145/139 110/137/131 107/136/130
f 14/37/37 8/39/39 128/124/118 133/146/140
f 123/147/141 153/115/109 106/123/117 121/122/116
f 134/148/142 17/44/44 67/43/43 155/149/143
f 114/150/144 120/151/145 139/152/146 134/148/142
f 135/153/147 19/51/51 31/50/50 138/154/148
f 137/155/149 116/156/150 124/157/151 143/158/152
f 117/159/153 125/160/154 154/161/155 151/162/156
f 116/156/150 118/163/157 126/164/158 124/157/151
f 136/165/159 23/65/65 41/64/64 142/166/160
f 136/165/159 117/159/153 27/66/66 23/65/65
f 116/156/150 26/68/68 25/67/67 118/163/157
f 137/155/149 22/69/69 26/68/68 116/156/150
f 25/67/67 69/70/70 151/162/156 118/163/157
f 138/154/148 31/50/50 14/37/37 133/146/140
f 120/151/145 108/113/107 130/126/120 139/152/146
f 119/130/124 153/115/109 147/114/108 152/131/125
f 113/145/139 123/147/141 121/122/116 110/137/131
f 146/167/161 59/74/74 101/73/73 183/168/162
f 110/137/131 121/122/116 141/125/119 132/138/132
f 122/112/106 153/115/109 148/142/136 111/141/135
f 142/166/160 41/64/64 7/76/76 127/169/163
f 126/164/158 112/144/138 107/136/130 124/157/151
f 125/160/154 109/140/134 149/143/137 154/161/155
f 143/158/152 124/157/151 107/136/130 129/139/133
f 38/77/77 143/158/152 129/139/133 5/78/78
f 125/160/154 142/166/160 127/169/163 109/140/134
f 141/125/119 34/80/80 11/79/79 132/138/132
f 131/170/164 140/127/121 122/112/106 111/141/135
f 139/152/146 130/126/120 6/18/18 30/82/82
f 119/130/124 138/154/148 133/146/140 153/115/109
f 117/159/153 136/165/159 142/166/160 125/160/154
f 22/69/69 137/155/149 143/158/152 38/77/77
f 115/129/123 135/153/147 138/154/148 119/130/124
f 134/148/142 139/152/146 30/82/82 17/44/44
f 114/150/144 134/148/142 155/149/143 150/128/122
f 133/146/140 128/124/118 106/123/117 153/115/109
f 132/138/132 11/79/79 5/78/78 129/139/133
f 127/169/163 131/170/164 111/141/135 109/140/134
f 140/127/121 130/126/120 108/113/107 122/112/106
f 128/124/118 8/39/39 34/80/80 141/125/119
f 144/135/129 185/134/128 105/84/84 12/83/83
f 146/167/161 183/168/162 184/133/127 145/132/126
f 155/149/143 135/153/147 115/129/123 150/128/122
f 154/161/155 149/143/137 112/144/138 126/164/158
f 153/115/109 123/147/141 113/145/139 148/142/136
f 120/151/145 152/131/125 147/114/108 108/113/107
f 69/70/70 27/66/66 117/159/153 151/162/156
f 151/162/156 154/161/155 126/164/158 118/163/157
f 67/43/43 19/51/51 135/153/147 155/149/143
f 149/143/137 148/142/136 113/145/139 112/144/138
f 114/150/144 150/128/122 152/131/125 120/151/145
f 170/171/165 171/172/166 158/173/167 163/174/168
f 172/175/169 173/176/170 160/177/171 156/178/172
f 173/176/170 170/171/165 163/174/168 160/177/171
f 175/121/115 165/118/112 179/179/173 180/180/174
f 174/120/114 165/118/112 175/121/115
f 167/117/111 177/116/110 176/181/175
f 177/116/110 165/118/112 174/120/114
f 176/181/175 178/182/176 181/183/177 167/117/111
f 170/184/165 162/185/178 159/186/179 171/187/166
f 173/188/170 172/189/169 157/190/180 161/191/181
f 170/184/165 173/188/170 161/191/181 162/185/178
f 177/116/110 168/192/182 164/193/183 176/181/175
f 169/119/113 175/121/115 166/194/184
f 174/120/114 169/119/113 168/192/182 177/116/110
f 176/181/175 164/193/183 182/195/185 178/182/176
f 159/186/179 166/194/184 175/121/115 180/180/174 171/187/166
f 178/182/176 182/195/185 157/190/180 172/189/169
f 178/182/176 172/175/169 156/178/172 181/183/177
f 180/196/174 179/197/173 158/173/167 171/172/166
f 166/194/184 159/186/179 162/185/178 161/191/181 157/190/180 182/195/185 164/193/183 168/192/182 169/119/113
f 184/133/127 183/168/162 140/127/121 131/170/164
f 185/134/128 127/169/163 7/76/76 105/84/84
f 183/168/162 101/73/73 35/15/15 140/127/121
f 184/133/127 131/170/164 127/169/163 185/134/128
